<svg width="30" height="30" viewBox="0 0 30 30" fill="none" xmlns="http://www.w3.org/2000/svg">
<path d="M23.6576 22.3834H22.1128L22.1199 21.4792C22.1199 21.0774 22.4474 20.7487 22.8477 20.7487H22.9462C23.3471 20.7487 23.6755 21.0774 23.6755 21.4792L23.6576 22.3834ZM17.8637 20.4459C17.4719 20.4459 17.1513 20.7112 17.1513 21.0361V25.4334C17.1513 25.7577 17.4719 26.0225 17.8637 26.0225C18.2571 26.0225 18.578 25.7577 18.578 25.4334V21.0361C18.578 20.7109 18.2571 20.4459 17.8637 20.4459ZM27.2728 17.9861V26.3515C27.2728 28.358 25.5459 30 23.4356 30H7.65568C5.54446 30 3.81821 28.358 3.81821 26.3515V17.9861C3.81821 15.9795 5.54446 14.3373 7.65568 14.3373H23.4356C25.5459 14.3373 27.2728 15.9795 27.2728 17.9861ZM8.70832 27.2597L8.70707 18.4478L10.6632 18.4484V17.1428L5.44877 17.1349V18.4185L7.07651 18.4232V27.2597H8.70832ZM14.572 19.7604H12.9411V24.4659C12.9411 25.1467 12.9821 25.487 12.9386 25.6071C12.806 25.972 12.2099 26.3594 11.9776 25.6465C11.9382 25.5217 11.9729 25.1451 11.9723 24.4984L11.9657 19.7604H10.3439L10.3489 24.4237C10.3501 25.1385 10.3329 25.6717 10.3545 25.9141C10.3942 26.3417 10.3802 26.8406 10.7739 27.1252C11.5075 27.6581 12.9139 27.0458 13.2657 26.2844L13.2626 27.256L14.5723 27.2575V19.7604H14.572ZM19.7892 25.1489L19.7857 21.2325C19.7845 19.7399 18.6765 18.8458 17.1723 20.0535L17.1789 17.1418L15.5495 17.1443L15.5417 27.1945L16.8811 27.1747L17.0031 26.5488C18.7156 28.1318 19.7917 27.0473 19.7892 25.1489ZM24.8932 24.6298L23.6701 24.6364C23.6695 24.6853 23.6679 24.7417 23.6673 24.8031V25.4908C23.6673 25.8586 23.3655 26.1583 22.999 26.1583H22.7595C22.3923 26.1583 22.0909 25.8586 22.0909 25.4908V25.4145V24.6582V23.6821H24.891V22.6201C24.891 21.8439 24.8713 21.068 24.8075 20.6242C24.6074 19.2205 22.6522 18.9977 21.6646 19.7163C21.3544 19.9407 21.1177 20.241 20.9801 20.6447C20.8409 21.0484 20.7721 21.5999 20.7721 22.3005V24.6355C20.7724 28.5175 25.4514 27.9688 24.8932 24.6298ZM18.6205 11.9519C18.7047 12.158 18.8354 12.325 19.0127 12.4511C19.1878 12.5753 19.412 12.6377 19.68 12.6377C19.9152 12.6377 20.1235 12.5737 20.3049 12.4416C20.4856 12.3102 20.6379 12.1139 20.7621 11.852L20.7314 12.4968H22.5493V4.70593H21.1183V10.7694C21.1183 11.0978 20.85 11.3667 20.5219 11.3667C20.1957 11.3667 19.9265 11.0978 19.9265 10.7694V4.70593H18.4329V9.96076C18.4329 10.6301 18.4448 11.0764 18.4645 11.3027C18.4854 11.5274 18.5364 11.7429 18.6205 11.9519ZM13.1115 7.55175C13.1115 6.80389 13.1734 6.21992 13.2963 5.79887C13.4202 5.37941 13.6425 5.04219 13.9646 4.78787C14.2858 4.53228 14.6971 4.40433 15.1971 4.40433C15.6177 4.40433 15.978 4.48753 16.2791 4.65046C16.5815 4.81434 16.8145 5.02707 16.9765 5.28959C17.1413 5.55306 17.2533 5.82377 17.313 6.10079C17.374 6.38159 17.404 6.80515 17.404 7.37652V9.34685C17.404 10.0695 17.3752 10.6012 17.3196 10.9387C17.2642 11.2772 17.1454 11.591 16.9615 11.8854C16.7798 12.1766 16.5456 12.3944 16.2616 12.5333C15.9745 12.6736 15.6462 12.7423 15.2753 12.7423C14.8609 12.7423 14.5119 12.6846 14.2242 12.5642C13.9356 12.4445 13.7126 12.2639 13.5537 12.0241C13.3933 11.7839 13.2804 11.4915 13.2122 11.1505C13.1437 10.8098 13.1112 10.2973 13.1112 9.61441V7.55175H13.1115ZM14.5354 10.6465C14.5354 11.0877 14.8612 11.448 15.2581 11.448C15.6552 11.448 15.9795 11.0877 15.9795 10.6465V6.49914C15.9795 6.05856 15.6552 5.69834 15.2581 5.69834C14.8612 5.69834 14.5354 6.05856 14.5354 6.49914V10.6465ZM9.50421 12.7407H11.2192L11.2211 6.76544L13.2476 1.64675H11.3718L10.2945 5.44874L9.20181 1.63635H7.34546L9.5014 6.76828L9.50421 12.7407Z" fill="black"/>
</svg>
